<svg xmlns="http://www.w3.org/2000/svg" class="ionicon" viewBox="0 0 512 512" width="288" height="288"><path d="M480 496H48a32 32 0 01-32-32V32a16 16 0 0132 0v432h432a16 16 0 010 32z" fill="#f9fafb" class="color000 svgShape"></path><path d="M156 432h-40a36 36 0 01-36-36V244a36 36 0 0136-36h40a36 36 0 0136 36v152a36 36 0 01-36 36zM300 432h-40a36 36 0 01-36-36V196a36 36 0 0136-36h40a36 36 0 0136 36v200a36 36 0 01-36 36zM443.64 432h-40a36 36 0 01-36-36V132a36 36 0 0136-36h40a36 36 0 0136 36v264a36 36 0 01-36 36z" fill="#f9fafb" class="color000 svgShape"></path></svg>